<mxfile host="app.diagrams.net" modified="2023-01-04T14:24:50.700Z" agent="5.0 (Macintosh; Intel Mac OS X 10_15_7) AppleWebKit/537.36 (KHTML, like Gecko) Chrome/108.0.0.0 Safari/537.36" version="20.7.4" etag="n5kw8uti_-QO0rkn_QiJ" type="github" pages="2">
  <diagram id="KMa3qKYrj25J3nzpvQLY" name="Page-1">
    <mxGraphModel grid="1" page="1" gridSize="10" guides="1" tooltips="1" connect="1" arrows="1" fold="1" pageScale="1" pageWidth="850" pageHeight="1100" math="0" shadow="0">
      <root>
        <mxCell id="0" />
        <mxCell id="1" parent="0" />
        <mxCell id="N93MeVnp6EDyMdLJbOfk-3" value="" style="edgeStyle=orthogonalEdgeStyle;rounded=0;orthogonalLoop=1;jettySize=auto;html=1;fontSize=12;" edge="1" parent="1" source="N93MeVnp6EDyMdLJbOfk-1" target="N93MeVnp6EDyMdLJbOfk-2">
          <mxGeometry relative="1" as="geometry" />
        </mxCell>
        <mxCell id="N93MeVnp6EDyMdLJbOfk-1" value="&lt;font style=&quot;font-size: 12px;&quot;&gt;start&lt;/font&gt;" style="ellipse;whiteSpace=wrap;html=1;" vertex="1" parent="1">
          <mxGeometry x="380" y="10" width="90" height="50" as="geometry" />
        </mxCell>
        <mxCell id="N93MeVnp6EDyMdLJbOfk-5" value="" style="edgeStyle=orthogonalEdgeStyle;rounded=0;orthogonalLoop=1;jettySize=auto;html=1;fontSize=12;" edge="1" parent="1" source="N93MeVnp6EDyMdLJbOfk-2" target="N93MeVnp6EDyMdLJbOfk-4">
          <mxGeometry relative="1" as="geometry" />
        </mxCell>
        <mxCell id="N93MeVnp6EDyMdLJbOfk-2" value="var avg, n, sum, b, i = 0;&lt;br&gt;x = [];" style="whiteSpace=wrap;html=1;" vertex="1" parent="1">
          <mxGeometry x="358" y="91" width="135" height="60" as="geometry" />
        </mxCell>
        <mxCell id="N93MeVnp6EDyMdLJbOfk-7" value="" style="edgeStyle=orthogonalEdgeStyle;rounded=0;orthogonalLoop=1;jettySize=auto;html=1;fontSize=12;" edge="1" parent="1" source="N93MeVnp6EDyMdLJbOfk-4" target="N93MeVnp6EDyMdLJbOfk-6">
          <mxGeometry relative="1" as="geometry" />
        </mxCell>
        <mxCell id="N93MeVnp6EDyMdLJbOfk-4" value="n" style="shape=parallelogram;perimeter=parallelogramPerimeter;whiteSpace=wrap;html=1;fixedSize=1;" vertex="1" parent="1">
          <mxGeometry x="365" y="190" width="120" height="60" as="geometry" />
        </mxCell>
        <mxCell id="N93MeVnp6EDyMdLJbOfk-9" value="" style="edgeStyle=orthogonalEdgeStyle;rounded=0;orthogonalLoop=1;jettySize=auto;html=1;fontSize=12;" edge="1" parent="1" source="N93MeVnp6EDyMdLJbOfk-6" target="N93MeVnp6EDyMdLJbOfk-8">
          <mxGeometry relative="1" as="geometry" />
        </mxCell>
        <mxCell id="N93MeVnp6EDyMdLJbOfk-6" value="x[i]" style="shape=parallelogram;perimeter=parallelogramPerimeter;whiteSpace=wrap;html=1;fixedSize=1;fontSize=12;" vertex="1" parent="1">
          <mxGeometry x="365" y="279" width="120" height="60" as="geometry" />
        </mxCell>
        <mxCell id="N93MeVnp6EDyMdLJbOfk-11" value="" style="edgeStyle=orthogonalEdgeStyle;rounded=0;orthogonalLoop=1;jettySize=auto;html=1;fontSize=12;" edge="1" parent="1" source="N93MeVnp6EDyMdLJbOfk-8" target="N93MeVnp6EDyMdLJbOfk-10">
          <mxGeometry x="0.3851" y="10" relative="1" as="geometry">
            <mxPoint as="offset" />
          </mxGeometry>
        </mxCell>
        <mxCell id="N93MeVnp6EDyMdLJbOfk-12" value="Yes" style="edgeLabel;html=1;align=center;verticalAlign=middle;resizable=0;points=[];fontSize=12;" vertex="1" connectable="0" parent="N93MeVnp6EDyMdLJbOfk-11">
          <mxGeometry x="-0.2009" relative="1" as="geometry">
            <mxPoint as="offset" />
          </mxGeometry>
        </mxCell>
        <mxCell id="N93MeVnp6EDyMdLJbOfk-14" value="" style="edgeStyle=orthogonalEdgeStyle;rounded=0;orthogonalLoop=1;jettySize=auto;html=1;fontSize=12;entryX=0.542;entryY=0;entryDx=0;entryDy=0;entryPerimeter=0;" edge="1" parent="1" source="N93MeVnp6EDyMdLJbOfk-8" target="N93MeVnp6EDyMdLJbOfk-29">
          <mxGeometry relative="1" as="geometry">
            <mxPoint x="270" y="646" as="targetPoint" />
            <Array as="points">
              <mxPoint x="270" y="436" />
              <mxPoint x="270" y="625" />
              <mxPoint x="430" y="625" />
            </Array>
          </mxGeometry>
        </mxCell>
        <mxCell id="N93MeVnp6EDyMdLJbOfk-8" value="n &amp;lt; x.length" style="rhombus;whiteSpace=wrap;html=1;fontSize=12;" vertex="1" parent="1">
          <mxGeometry x="385" y="396" width="80" height="80" as="geometry" />
        </mxCell>
        <mxCell id="N93MeVnp6EDyMdLJbOfk-19" style="edgeStyle=orthogonalEdgeStyle;rounded=0;orthogonalLoop=1;jettySize=auto;html=1;fontSize=12;entryX=0.5;entryY=1;entryDx=0;entryDy=0;" edge="1" parent="1" source="N93MeVnp6EDyMdLJbOfk-10" target="N93MeVnp6EDyMdLJbOfk-16">
          <mxGeometry relative="1" as="geometry">
            <mxPoint x="575" y="485" as="targetPoint" />
          </mxGeometry>
        </mxCell>
        <mxCell id="N93MeVnp6EDyMdLJbOfk-10" value="avg += x[i]" style="rounded=0;whiteSpace=wrap;html=1;fontSize=12;" vertex="1" parent="1">
          <mxGeometry x="365" y="536" width="120" height="60" as="geometry" />
        </mxCell>
        <mxCell id="N93MeVnp6EDyMdLJbOfk-54" style="edgeStyle=orthogonalEdgeStyle;rounded=0;orthogonalLoop=1;jettySize=auto;html=1;fontSize=12;" edge="1" parent="1" source="N93MeVnp6EDyMdLJbOfk-16">
          <mxGeometry relative="1" as="geometry">
            <mxPoint x="430" y="359" as="targetPoint" />
            <Array as="points">
              <mxPoint x="575" y="359" />
            </Array>
          </mxGeometry>
        </mxCell>
        <mxCell id="N93MeVnp6EDyMdLJbOfk-16" value="i++" style="rounded=0;whiteSpace=wrap;html=1;fontSize=12;" vertex="1" parent="1">
          <mxGeometry x="530" y="439" width="90" height="40" as="geometry" />
        </mxCell>
        <mxCell id="N93MeVnp6EDyMdLJbOfk-32" style="edgeStyle=orthogonalEdgeStyle;rounded=0;orthogonalLoop=1;jettySize=auto;html=1;fontSize=12;" edge="1" parent="1" source="N93MeVnp6EDyMdLJbOfk-29">
          <mxGeometry relative="1" as="geometry">
            <mxPoint x="425" y="785" as="targetPoint" />
          </mxGeometry>
        </mxCell>
        <mxCell id="N93MeVnp6EDyMdLJbOfk-29" value="avg = avg / n" style="rounded=0;whiteSpace=wrap;html=1;fontSize=12;" vertex="1" parent="1">
          <mxGeometry x="365" y="665" width="120" height="60" as="geometry" />
        </mxCell>
        <mxCell id="N93MeVnp6EDyMdLJbOfk-37" value="" style="edgeStyle=orthogonalEdgeStyle;rounded=0;orthogonalLoop=1;jettySize=auto;html=1;fontSize=12;" edge="1" parent="1" source="N93MeVnp6EDyMdLJbOfk-33" target="N93MeVnp6EDyMdLJbOfk-34">
          <mxGeometry relative="1" as="geometry" />
        </mxCell>
        <mxCell id="N93MeVnp6EDyMdLJbOfk-38" value="Yes" style="edgeLabel;html=1;align=center;verticalAlign=middle;resizable=0;points=[];fontSize=12;" vertex="1" connectable="0" parent="N93MeVnp6EDyMdLJbOfk-37">
          <mxGeometry x="-0.1335" relative="1" as="geometry">
            <mxPoint as="offset" />
          </mxGeometry>
        </mxCell>
        <mxCell id="N93MeVnp6EDyMdLJbOfk-43" style="edgeStyle=orthogonalEdgeStyle;rounded=0;orthogonalLoop=1;jettySize=auto;html=1;fontSize=12;entryX=0.428;entryY=-0.018;entryDx=0;entryDy=0;entryPerimeter=0;" edge="1" parent="1" source="N93MeVnp6EDyMdLJbOfk-33" target="N93MeVnp6EDyMdLJbOfk-44">
          <mxGeometry relative="1" as="geometry">
            <mxPoint x="280" y="1019" as="targetPoint" />
            <Array as="points">
              <mxPoint x="290" y="825" />
              <mxPoint x="290" y="1009" />
              <mxPoint x="416" y="1009" />
            </Array>
          </mxGeometry>
        </mxCell>
        <mxCell id="N93MeVnp6EDyMdLJbOfk-46" value="No" style="edgeLabel;html=1;align=center;verticalAlign=middle;resizable=0;points=[];fontSize=12;" vertex="1" connectable="0" parent="N93MeVnp6EDyMdLJbOfk-43">
          <mxGeometry x="-0.6042" y="-1" relative="1" as="geometry">
            <mxPoint x="29" y="1" as="offset" />
          </mxGeometry>
        </mxCell>
        <mxCell id="N93MeVnp6EDyMdLJbOfk-33" value="n &amp;lt; x.length" style="rhombus;whiteSpace=wrap;html=1;fontSize=12;" vertex="1" parent="1">
          <mxGeometry x="385" y="785" width="80" height="80" as="geometry" />
        </mxCell>
        <mxCell id="N93MeVnp6EDyMdLJbOfk-40" value="" style="edgeStyle=orthogonalEdgeStyle;rounded=0;orthogonalLoop=1;jettySize=auto;html=1;fontSize=12;" edge="1" parent="1" source="N93MeVnp6EDyMdLJbOfk-34" target="N93MeVnp6EDyMdLJbOfk-39">
          <mxGeometry relative="1" as="geometry" />
        </mxCell>
        <mxCell id="N93MeVnp6EDyMdLJbOfk-34" value="sum += pow(x[i] - avg)&amp;nbsp;" style="whiteSpace=wrap;html=1;" vertex="1" parent="1">
          <mxGeometry x="356" y="929" width="138" height="60" as="geometry" />
        </mxCell>
        <mxCell id="N93MeVnp6EDyMdLJbOfk-42" style="edgeStyle=orthogonalEdgeStyle;rounded=0;orthogonalLoop=1;jettySize=auto;html=1;fontSize=12;" edge="1" parent="1" source="N93MeVnp6EDyMdLJbOfk-39">
          <mxGeometry relative="1" as="geometry">
            <mxPoint x="430" y="749" as="targetPoint" />
            <Array as="points">
              <mxPoint x="580" y="749" />
            </Array>
          </mxGeometry>
        </mxCell>
        <mxCell id="N93MeVnp6EDyMdLJbOfk-39" value="i++" style="whiteSpace=wrap;html=1;" vertex="1" parent="1">
          <mxGeometry x="520" y="829" width="120" height="60" as="geometry" />
        </mxCell>
        <mxCell id="N93MeVnp6EDyMdLJbOfk-49" value="" style="edgeStyle=orthogonalEdgeStyle;rounded=0;orthogonalLoop=1;jettySize=auto;html=1;fontSize=12;" edge="1" parent="1" source="N93MeVnp6EDyMdLJbOfk-44" target="N93MeVnp6EDyMdLJbOfk-48">
          <mxGeometry relative="1" as="geometry" />
        </mxCell>
        <mxCell id="N93MeVnp6EDyMdLJbOfk-44" value="b = sum / n" style="rounded=0;whiteSpace=wrap;html=1;fontSize=12;" vertex="1" parent="1">
          <mxGeometry x="365" y="1029" width="120" height="60" as="geometry" />
        </mxCell>
        <mxCell id="N93MeVnp6EDyMdLJbOfk-52" style="edgeStyle=orthogonalEdgeStyle;rounded=0;orthogonalLoop=1;jettySize=auto;html=1;entryX=0.5;entryY=0;entryDx=0;entryDy=0;fontSize=12;" edge="1" parent="1" source="N93MeVnp6EDyMdLJbOfk-48" target="N93MeVnp6EDyMdLJbOfk-51">
          <mxGeometry relative="1" as="geometry" />
        </mxCell>
        <mxCell id="N93MeVnp6EDyMdLJbOfk-48" value="std = sqrt( b )" style="whiteSpace=wrap;html=1;rounded=0;" vertex="1" parent="1">
          <mxGeometry x="365" y="1129" width="120" height="60" as="geometry" />
        </mxCell>
        <mxCell id="N93MeVnp6EDyMdLJbOfk-50" value="End" style="ellipse;whiteSpace=wrap;html=1;fontSize=12;" vertex="1" parent="1">
          <mxGeometry x="383" y="1320" width="84.5" height="50" as="geometry" />
        </mxCell>
        <mxCell id="N93MeVnp6EDyMdLJbOfk-53" value="" style="edgeStyle=orthogonalEdgeStyle;rounded=0;orthogonalLoop=1;jettySize=auto;html=1;fontSize=12;" edge="1" parent="1" source="N93MeVnp6EDyMdLJbOfk-51" target="N93MeVnp6EDyMdLJbOfk-50">
          <mxGeometry relative="1" as="geometry" />
        </mxCell>
        <mxCell id="N93MeVnp6EDyMdLJbOfk-51" value="print(std);" style="shape=parallelogram;perimeter=parallelogramPerimeter;whiteSpace=wrap;html=1;fixedSize=1;fontSize=12;" vertex="1" parent="1">
          <mxGeometry x="365" y="1229" width="120" height="60" as="geometry" />
        </mxCell>
      </root>
    </mxGraphModel>
  </diagram>
  <diagram id="_dyQApKp7TmxH3nLuj1r" name="Page-2">
    <mxGraphModel dx="489" dy="3603" grid="1" gridSize="10" guides="1" tooltips="1" connect="1" arrows="1" fold="1" page="1" pageScale="1" pageWidth="850" pageHeight="1100" math="0" shadow="0">
      <root>
        <mxCell id="0" />
        <mxCell id="1" parent="0" />
        <mxCell id="HF__PW82gWZHHkHcONSt-5" value="" style="edgeStyle=orthogonalEdgeStyle;rounded=0;orthogonalLoop=1;jettySize=auto;html=1;fontSize=12;" edge="1" parent="1" source="HF__PW82gWZHHkHcONSt-1" target="HF__PW82gWZHHkHcONSt-4">
          <mxGeometry relative="1" as="geometry" />
        </mxCell>
        <mxCell id="HF__PW82gWZHHkHcONSt-1" value="start" style="ellipse;whiteSpace=wrap;html=1;fontSize=12;" vertex="1" parent="1">
          <mxGeometry x="365" y="-3290" width="120" height="50" as="geometry" />
        </mxCell>
        <mxCell id="HF__PW82gWZHHkHcONSt-6" value="" style="edgeStyle=orthogonalEdgeStyle;rounded=0;orthogonalLoop=1;jettySize=auto;html=1;fontSize=12;" edge="1" parent="1" source="HF__PW82gWZHHkHcONSt-4">
          <mxGeometry relative="1" as="geometry">
            <mxPoint x="425" y="-3050" as="targetPoint" />
          </mxGeometry>
        </mxCell>
        <mxCell id="HF__PW82gWZHHkHcONSt-4" value="var x = [];&lt;br&gt;var y = [];&lt;br&gt;var coRe, sumXPo, sumYPo ,xSum = ySum, sumMulty = 0;" style="rounded=0;whiteSpace=wrap;html=1;fontSize=12;" vertex="1" parent="1">
          <mxGeometry x="365" y="-3210" width="120" height="110" as="geometry" />
        </mxCell>
        <mxCell id="HF__PW82gWZHHkHcONSt-62" value="" style="edgeStyle=orthogonalEdgeStyle;rounded=0;orthogonalLoop=1;jettySize=auto;html=1;fontSize=12;" edge="1" parent="1" source="HF__PW82gWZHHkHcONSt-60" target="HF__PW82gWZHHkHcONSt-61">
          <mxGeometry relative="1" as="geometry" />
        </mxCell>
        <mxCell id="HF__PW82gWZHHkHcONSt-60" value="x = [];" style="shape=parallelogram;perimeter=parallelogramPerimeter;whiteSpace=wrap;html=1;fixedSize=1;fontSize=12;" vertex="1" parent="1">
          <mxGeometry x="365" y="-3050" width="120" height="60" as="geometry" />
        </mxCell>
        <mxCell id="HF__PW82gWZHHkHcONSt-64" style="edgeStyle=orthogonalEdgeStyle;rounded=0;orthogonalLoop=1;jettySize=auto;html=1;entryX=0.5;entryY=0;entryDx=0;entryDy=0;fontSize=12;" edge="1" parent="1" source="HF__PW82gWZHHkHcONSt-61" target="HF__PW82gWZHHkHcONSt-63">
          <mxGeometry relative="1" as="geometry" />
        </mxCell>
        <mxCell id="HF__PW82gWZHHkHcONSt-61" value="y = [];" style="shape=parallelogram;perimeter=parallelogramPerimeter;whiteSpace=wrap;html=1;fixedSize=1;" vertex="1" parent="1">
          <mxGeometry x="365" y="-2950" width="120" height="60" as="geometry" />
        </mxCell>
        <mxCell id="HF__PW82gWZHHkHcONSt-65" value="Yes" style="edgeStyle=orthogonalEdgeStyle;rounded=0;orthogonalLoop=1;jettySize=auto;html=1;fontSize=12;" edge="1" parent="1" source="HF__PW82gWZHHkHcONSt-63">
          <mxGeometry relative="1" as="geometry">
            <mxPoint x="425" y="-2577" as="targetPoint" />
          </mxGeometry>
        </mxCell>
        <mxCell id="HF__PW82gWZHHkHcONSt-67" style="edgeStyle=orthogonalEdgeStyle;rounded=0;orthogonalLoop=1;jettySize=auto;html=1;exitX=0;exitY=0.5;exitDx=0;exitDy=0;fontSize=12;entryX=0.001;entryY=0.399;entryDx=0;entryDy=0;entryPerimeter=0;" edge="1" parent="1" source="HF__PW82gWZHHkHcONSt-63" target="HF__PW82gWZHHkHcONSt-74">
          <mxGeometry relative="1" as="geometry">
            <mxPoint x="350" y="-2397" as="targetPoint" />
            <Array as="points">
              <mxPoint x="240" y="-2667" />
              <mxPoint x="240" y="-2413" />
            </Array>
          </mxGeometry>
        </mxCell>
        <mxCell id="HF__PW82gWZHHkHcONSt-73" value="No" style="edgeLabel;html=1;align=center;verticalAlign=middle;resizable=0;points=[];fontSize=12;" vertex="1" connectable="0" parent="HF__PW82gWZHHkHcONSt-67">
          <mxGeometry x="0.0254" y="2" relative="1" as="geometry">
            <mxPoint as="offset" />
          </mxGeometry>
        </mxCell>
        <mxCell id="HF__PW82gWZHHkHcONSt-63" value="i &amp;lt; x.length;" style="rhombus;whiteSpace=wrap;html=1;fontSize=12;" vertex="1" parent="1">
          <mxGeometry x="385" y="-2707" width="80" height="80" as="geometry" />
        </mxCell>
        <mxCell id="HF__PW82gWZHHkHcONSt-70" value="" style="edgeStyle=orthogonalEdgeStyle;rounded=0;orthogonalLoop=1;jettySize=auto;html=1;fontSize=12;" edge="1" parent="1" source="HF__PW82gWZHHkHcONSt-66">
          <mxGeometry relative="1" as="geometry">
            <mxPoint x="520" y="-2516.974358974359" as="targetPoint" />
          </mxGeometry>
        </mxCell>
        <mxCell id="HF__PW82gWZHHkHcONSt-66" value="xSum += x[i];&lt;br&gt;sumXPo += x[i] ^ 2;&lt;br&gt;&lt;br&gt;ySum += y[i];&lt;br&gt;sumYPo += y[i] ^ 2;&lt;br&gt;&lt;br&gt;sumMulty += x[i] * y [i];" style="rounded=0;whiteSpace=wrap;html=1;fontSize=12;" vertex="1" parent="1">
          <mxGeometry x="357.5" y="-2577" width="135" height="120" as="geometry" />
        </mxCell>
        <mxCell id="HF__PW82gWZHHkHcONSt-71" style="edgeStyle=orthogonalEdgeStyle;rounded=0;orthogonalLoop=1;jettySize=auto;html=1;fontSize=12;" edge="1" parent="1">
          <mxGeometry relative="1" as="geometry">
            <mxPoint x="430" y="-2727" as="targetPoint" />
            <mxPoint x="579.9743589743589" y="-2547" as="sourcePoint" />
            <Array as="points">
              <mxPoint x="580" y="-2727" />
            </Array>
          </mxGeometry>
        </mxCell>
        <mxCell id="HF__PW82gWZHHkHcONSt-69" value="i++;" style="whiteSpace=wrap;html=1;rounded=0;" vertex="1" parent="1">
          <mxGeometry x="520" y="-2563" width="120" height="60" as="geometry" />
        </mxCell>
        <mxCell id="HF__PW82gWZHHkHcONSt-76" value="" style="edgeStyle=orthogonalEdgeStyle;rounded=0;orthogonalLoop=1;jettySize=auto;html=1;fontSize=12;" edge="1" parent="1" source="HF__PW82gWZHHkHcONSt-74" target="HF__PW82gWZHHkHcONSt-75">
          <mxGeometry relative="1" as="geometry" />
        </mxCell>
        <mxCell id="HF__PW82gWZHHkHcONSt-74" value="r = &lt;br&gt;n * sumMulty - ( xSum * ySum ) /&lt;br&gt;&amp;nbsp;sqrt( n * sumXPo - (xSum)^2 ) * &lt;br&gt;sqrt( n * sumYPo - (ySum)^2 );&amp;nbsp;&amp;nbsp;" style="rounded=0;whiteSpace=wrap;html=1;fontSize=12;" vertex="1" parent="1">
          <mxGeometry x="290" y="-2437" width="270" height="60" as="geometry" />
        </mxCell>
        <mxCell id="HF__PW82gWZHHkHcONSt-77" style="edgeStyle=orthogonalEdgeStyle;rounded=0;orthogonalLoop=1;jettySize=auto;html=1;fontSize=12;" edge="1" parent="1" source="HF__PW82gWZHHkHcONSt-75" target="HF__PW82gWZHHkHcONSt-78">
          <mxGeometry relative="1" as="geometry">
            <mxPoint x="425" y="-2207" as="targetPoint" />
          </mxGeometry>
        </mxCell>
        <mxCell id="HF__PW82gWZHHkHcONSt-75" value="print(i);" style="shape=parallelogram;perimeter=parallelogramPerimeter;whiteSpace=wrap;html=1;fixedSize=1;rounded=0;" vertex="1" parent="1">
          <mxGeometry x="365" y="-2327" width="120" height="60" as="geometry" />
        </mxCell>
        <mxCell id="HF__PW82gWZHHkHcONSt-78" value="Exit" style="ellipse;whiteSpace=wrap;html=1;fontSize=12;" vertex="1" parent="1">
          <mxGeometry x="373" y="-2227" width="105" height="60" as="geometry" />
        </mxCell>
        <mxCell id="HF__PW82gWZHHkHcONSt-79" value="x.split(&quot;,&quot;);&lt;br&gt;y.split(&quot;,&quot;);" style="rounded=0;whiteSpace=wrap;html=1;fontSize=12;" vertex="1" parent="1">
          <mxGeometry x="365" y="-2850" width="120" height="60" as="geometry" />
        </mxCell>
      </root>
    </mxGraphModel>
  </diagram>
</mxfile>
